<svg data-v-423bf9ae="" xmlns="http://www.w3.org/2000/svg" viewBox="0 0 360 90" class="iconLeft"><!----><!----><!----><g data-v-423bf9ae="" id="b0fe05ec-9c57-4eda-8dc3-84d5ee9839df" fill="black" transform="matrix(5.882352501188353,0,0,5.882352501188353,100.12669680880234,-26.99999750361752)"><path d="M10.10 8.90L10.10 8.90L8.78 10.10L8.55 10.06L8.55 10.06Q8.42 9.58 8.22 9.19L8.22 9.19L8.22 9.19Q8.02 8.80 7.71 8.47L7.71 8.47L7.71 8.47Q7.41 8.13 6.96 7.95L6.96 7.95L6.96 7.95Q6.51 7.77 5.95 7.77L5.95 7.77L5.95 7.77Q5.37 7.77 4.89 7.96L4.89 7.96L4.89 7.96Q4.41 8.16 4.08 8.49L4.08 8.49L4.08 8.49Q3.75 8.83 3.50 9.26L3.50 9.26L3.50 9.26Q3.25 9.68 3.11 10.17L3.11 10.17L3.11 10.17Q2.97 10.66 2.91 11.13L2.91 11.13L2.91 11.13Q2.84 11.59 2.84 12.05L2.84 12.05L2.84 12.05Q2.84 12.67 2.97 13.27L2.97 13.27L2.97 13.27Q3.09 13.88 3.37 14.46L3.37 14.46L3.37 14.46Q3.66 15.05 4.07 15.50L4.07 15.50L4.07 15.50Q4.48 15.94 5.11 16.21L5.11 16.21L5.11 16.21Q5.74 16.49 6.49 16.49L6.49 16.49L6.49 16.49Q7.88 16.49 9.69 15.61L9.69 15.61L9.98 15.96L9.98 15.96Q8.00 17.34 5.92 17.34L5.92 17.34L5.92 17.34Q4.81 17.34 3.92 17.07L3.92 17.07L3.92 17.07Q3.03 16.80 2.45 16.34L2.45 16.34L2.45 16.34Q1.87 15.88 1.49 15.24L1.49 15.24L1.49 15.24Q1.11 14.61 0.95 13.92L0.95 13.92L0.95 13.92Q0.79 13.23 0.79 12.46L0.79 12.46L0.79 12.46Q0.79 9.98 2.26 8.65L2.26 8.65L2.26 8.65Q3.06 7.92 4.12 7.53L4.12 7.53L4.12 7.53Q5.18 7.14 6.33 7.14L6.33 7.14L6.33 7.14Q7.68 7.14 8.59 7.55L8.59 7.55L8.59 7.55Q9.49 7.96 10.10 8.90ZM15.89 10.72L16.73 10.19L16.93 10.32L16.93 10.32Q16.70 12.65 16.70 14.14L16.70 14.14L16.70 14.14Q16.70 14.72 16.71 14.98L16.71 14.98L16.71 14.98Q16.71 15.24 16.75 15.55L16.75 15.55L16.75 15.55Q16.80 15.85 16.90 15.96L16.90 15.96L16.90 15.96Q16.99 16.06 17.17 16.06L17.17 16.06L17.17 16.06Q17.49 16.06 18.14 15.48L18.14 15.48L18.41 15.77L18.41 15.77Q18.16 16.06 17.94 16.29L17.94 16.29L17.94 16.29Q17.71 16.52 17.41 16.76L17.41 16.76L17.41 16.76Q17.11 17.00 16.77 17.13L16.77 17.13L16.77 17.13Q16.43 17.26 16.10 17.26L16.10 17.26L16.10 17.26Q15.35 17.26 15.23 16.33L15.23 16.33L15.05 16.26L15.05 16.26Q13.68 17.30 12.45 17.30L12.45 17.30L12.45 17.30Q11.91 17.30 11.50 17.02L11.50 17.02L11.50 17.02Q11.10 16.74 10.88 16.29L10.88 16.29L10.88 16.29Q10.66 15.84 10.56 15.36L10.56 15.36L10.56 15.36Q10.46 14.89 10.46 14.42L10.46 14.42L10.46 14.42Q10.46 12.29 11.32 11.20L11.32 11.20L11.32 11.20Q12.17 10.12 13.84 10.12L13.84 10.12L13.84 10.12Q14.90 10.12 15.89 10.72L15.89 10.72ZM15.26 12.46L15.26 12.46L15.26 12.46Q15.26 10.65 13.97 10.65L13.97 10.65L13.97 10.65Q13.58 10.65 13.27 10.80L13.27 10.80L13.27 10.80Q12.95 10.94 12.75 11.20L12.75 11.20L12.75 11.20Q12.55 11.46 12.40 11.78L12.40 11.78L12.40 11.78Q12.26 12.09 12.18 12.47L12.18 12.47L12.18 12.47Q12.11 12.85 12.07 13.19L12.07 13.19L12.07 13.19Q12.04 13.52 12.04 13.87L12.04 13.87L12.04 13.87Q12.04 14.27 12.11 14.65L12.11 14.65L12.11 14.65Q12.17 15.03 12.33 15.39L12.33 15.39L12.33 15.39Q12.48 15.76 12.79 15.99L12.79 15.99L12.79 15.99Q13.09 16.21 13.51 16.21L13.51 16.21L13.51 16.21Q14.33 16.21 15.15 15.45L15.15 15.45L15.15 15.45Q15.26 14.63 15.26 12.46ZM20.47 7.33L20.65 7.50L20.54 13.86L20.54 13.86Q20.54 13.95 20.53 14.15L20.53 14.15L20.53 14.15Q20.52 14.35 20.52 14.46L20.52 14.46L20.52 14.46Q20.52 14.79 20.53 15.00L20.53 15.00L20.53 15.00Q20.54 15.22 20.57 15.42L20.57 15.42L20.57 15.42Q20.60 15.63 20.66 15.74L20.66 15.74L20.66 15.74Q20.72 15.86 20.82 15.93L20.82 15.93L20.82 15.93Q20.91 16.00 21.05 16.00L21.05 16.00L21.05 16.00Q21.52 16.00 22.09 15.37L22.09 15.37L22.26 15.37L22.48 15.59L22.48 15.59Q21.29 17.19 20.20 17.19L20.20 17.19L20.20 17.19Q20.01 17.19 19.85 17.15L19.85 17.15L19.85 17.15Q19.69 17.11 19.57 17.06L19.57 17.06L19.57 17.06Q19.46 17.00 19.36 16.90L19.36 16.90L19.36 16.90Q19.27 16.80 19.21 16.71L19.21 16.71L19.21 16.71Q19.15 16.63 19.11 16.47L19.11 16.47L19.11 16.47Q19.07 16.32 19.05 16.21L19.05 16.21L19.05 16.21Q19.03 16.11 19.02 15.93L19.02 15.93L19.02 15.93Q19.01 15.75 19.01 15.65L19.01 15.65L19.01 15.65Q19.01 15.54 19.01 15.35L19.01 15.35L19.01 15.35Q19.01 14.83 19.04 13.75L19.04 13.75L19.04 13.75Q19.07 12.66 19.07 12.08L19.07 12.08L19.07 12.08Q19.07 10.49 19.05 9.71L19.05 9.71L19.05 9.71Q19.02 8.63 18.98 8.50L18.98 8.50L18.98 8.50Q18.96 8.42 18.93 8.35L18.93 8.35L18.93 8.35Q18.90 8.29 18.84 8.24L18.84 8.24L18.84 8.24Q18.79 8.19 18.74 8.16L18.74 8.16L18.74 8.16Q18.70 8.12 18.60 8.10L18.60 8.10L18.60 8.10Q18.51 8.07 18.46 8.06L18.46 8.06L18.46 8.06Q18.41 8.05 18.29 8.04L18.29 8.04L18.29 8.04Q18.16 8.03 18.11 8.02L18.11 8.02L18.11 8.02Q18.06 8.02 17.92 8.01L17.92 8.01L17.92 8.01Q17.77 8.00 17.73 8.00L17.73 8.00L17.73 7.68L17.89 7.57L20.47 7.33ZM24.64 7.33L24.82 7.50L24.71 13.86L24.71 13.86Q24.71 13.95 24.70 14.15L24.70 14.15L24.70 14.15Q24.69 14.35 24.69 14.46L24.69 14.46L24.69 14.46Q24.69 14.79 24.70 15.00L24.70 15.00L24.70 15.00Q24.71 15.22 24.74 15.42L24.74 15.42L24.74 15.42Q24.77 15.63 24.83 15.74L24.83 15.74L24.83 15.74Q24.89 15.86 24.99 15.93L24.99 15.93L24.99 15.93Q25.08 16.00 25.22 16.00L25.22 16.00L25.22 16.00Q25.69 16.00 26.26 15.37L26.26 15.37L26.43 15.37L26.65 15.59L26.65 15.59Q25.46 17.19 24.37 17.19L24.37 17.19L24.37 17.19Q24.18 17.19 24.02 17.15L24.02 17.15L24.02 17.15Q23.86 17.11 23.74 17.06L23.74 17.06L23.74 17.06Q23.63 17.00 23.53 16.90L23.53 16.90L23.53 16.90Q23.44 16.80 23.38 16.71L23.38 16.71L23.38 16.71Q23.32 16.63 23.28 16.47L23.28 16.47L23.28 16.47Q23.24 16.32 23.22 16.21L23.22 16.21L23.22 16.21Q23.20 16.11 23.19 15.93L23.19 15.93L23.19 15.93Q23.18 15.75 23.18 15.65L23.18 15.65L23.18 15.65Q23.18 15.54 23.18 15.35L23.18 15.35L23.18 15.35Q23.18 14.83 23.21 13.75L23.21 13.75L23.21 13.75Q23.24 12.66 23.24 12.08L23.24 12.08L23.24 12.08Q23.24 10.49 23.22 9.71L23.22 9.71L23.22 9.71Q23.19 8.63 23.15 8.50L23.15 8.50L23.15 8.50Q23.13 8.42 23.10 8.35L23.10 8.35L23.10 8.35Q23.07 8.29 23.01 8.24L23.01 8.24L23.01 8.24Q22.96 8.19 22.91 8.16L22.91 8.16L22.91 8.16Q22.87 8.12 22.77 8.10L22.77 8.10L22.77 8.10Q22.68 8.07 22.63 8.06L22.63 8.06L22.63 8.06Q22.58 8.05 22.46 8.04L22.46 8.04L22.46 8.04Q22.33 8.03 22.28 8.02L22.28 8.02L22.28 8.02Q22.23 8.02 22.09 8.01L22.09 8.01L22.09 8.01Q21.94 8.00 21.90 8.00L21.90 8.00L21.90 7.68L22.06 7.57L24.64 7.33ZM31.93 10.20L31.93 10.20L32.22 10.45L32.22 10.45Q30.77 12.26 29.34 13.73L29.34 13.73L27.74 15.46L27.80 15.59L27.80 15.59Q28.27 15.59 29.21 15.69L29.21 15.69L29.21 15.69Q30.15 15.79 30.60 15.79L30.60 15.79L30.60 15.79Q31.14 15.79 31.55 15.50L31.55 15.50L31.55 15.50Q31.96 15.21 32.32 14.70L32.32 14.70L32.67 14.92L32.03 16.13L32.03 16.13Q31.74 16.68 31.42 16.94L31.42 16.94L31.42 16.94Q31.10 17.20 30.50 17.20L30.50 17.20L30.50 17.20Q29.87 17.20 28.60 17.02L28.60 17.02L28.60 17.02Q27.34 16.85 26.71 16.85L26.71 16.85L26.71 16.85Q26.31 16.85 25.91 17.29L25.91 17.29L25.77 17.29L25.57 17.12L25.57 17.12Q26.05 16.47 26.71 15.73L26.71 15.73L26.71 15.73Q27.38 14.99 27.95 14.42L27.95 14.42L27.95 14.42Q28.51 13.86 29.20 13.13L29.20 13.13L29.20 13.13Q29.88 12.40 30.36 11.81L30.36 11.81L30.36 11.81Q30.31 11.81 30.20 11.82L30.20 11.82L30.20 11.82Q30.10 11.83 30.05 11.83L30.05 11.83L30.05 11.83Q29.54 11.83 28.63 11.67L28.63 11.67L28.63 11.67Q27.73 11.52 27.49 11.52L27.49 11.52L27.49 11.52Q27.04 11.52 26.39 12.30L26.39 12.30L26.02 12.13L26.99 10.54L26.99 10.54Q27.08 10.38 27.30 10.29L27.30 10.29L27.30 10.29Q27.51 10.20 27.74 10.20L27.74 10.20L27.74 10.20Q28.16 10.20 29.12 10.41L29.12 10.41L29.12 10.41Q30.08 10.62 30.61 10.62L30.61 10.62L30.61 10.62Q31.31 10.62 31.93 10.20ZM33.89 9.05L33.89 9.05L33.89 9.05Q33.62 8.78 33.62 8.39L33.62 8.39L33.62 8.39Q33.62 8.01 33.89 7.74L33.89 7.74L33.89 7.74Q34.17 7.47 34.54 7.47L34.54 7.47L34.54 7.47Q34.92 7.47 35.19 7.74L35.19 7.74L35.19 7.74Q35.46 8.01 35.46 8.39L35.46 8.39L35.46 8.39Q35.46 8.78 35.19 9.05L35.19 9.05L35.19 9.05Q34.92 9.32 34.54 9.32L34.54 9.32L34.54 9.32Q34.17 9.32 33.89 9.05ZM36.85 15.42L36.85 15.42L37.09 15.65L37.09 15.80L37.09 15.80Q35.90 17.27 34.90 17.27L34.90 17.27L34.90 17.27Q34.35 17.27 34.06 16.88L34.06 16.88L34.06 16.88Q33.97 16.75 33.91 16.59L33.91 16.59L33.91 16.59Q33.86 16.43 33.83 16.28L33.83 16.28L33.83 16.28Q33.80 16.13 33.79 15.81L33.79 15.81L33.79 15.81Q33.78 15.50 33.78 15.26L33.78 15.26L33.78 15.26Q33.78 15.01 33.79 14.48L33.79 14.48L33.79 14.48Q33.80 13.95 33.80 13.54L33.80 13.54L33.80 11.89L33.80 11.89Q33.74 11.21 33.31 11.21L33.31 11.21L33.31 11.21Q32.96 11.21 32.34 11.66L32.34 11.66L32.12 11.35L32.12 11.35Q32.53 11.01 32.84 10.80L32.84 10.80L32.84 10.80Q33.14 10.59 33.60 10.39L33.60 10.39L33.60 10.39Q34.05 10.19 34.43 10.19L34.43 10.19L34.43 10.19Q34.94 10.19 35.13 10.51L35.13 10.51L35.13 10.51Q35.22 10.66 35.26 10.88L35.26 10.88L35.26 10.88Q35.29 11.10 35.29 11.68L35.29 11.68L35.29 11.68Q35.29 11.96 35.27 12.53L35.27 12.53L35.27 12.53Q35.25 13.10 35.25 13.38L35.25 13.38L35.25 13.38Q35.25 13.60 35.25 13.91L35.25 13.91L35.25 13.91Q35.25 14.23 35.24 14.41L35.24 14.41L35.24 14.41Q35.24 14.59 35.24 14.83L35.24 14.83L35.24 14.83Q35.25 15.07 35.26 15.21L35.26 15.21L35.26 15.21Q35.27 15.35 35.30 15.52L35.30 15.52L35.30 15.52Q35.32 15.68 35.37 15.77L35.37 15.77L35.37 15.77Q35.41 15.85 35.48 15.93L35.48 15.93L35.48 15.93Q35.55 16.02 35.64 16.05L35.64 16.05L35.64 16.05Q35.73 16.08 35.85 16.08L35.85 16.08L35.85 16.08Q36.01 16.08 36.21 15.96L36.21 15.96L36.21 15.96Q36.42 15.84 36.53 15.73L36.53 15.73L36.53 15.73Q36.65 15.62 36.85 15.42ZM39.35 13.48L39.35 13.48L39.35 13.48Q40.04 13.26 40.99 12.98L40.99 12.98L40.99 12.98Q41.90 12.70 42.13 12.59L42.13 12.59L42.13 12.59Q42.36 12.48 42.36 12.27L42.36 12.27L42.36 12.27Q42.36 11.66 42.04 11.19L42.04 11.19L42.04 11.19Q41.72 10.72 41.09 10.72L41.09 10.72L41.09 10.72Q40.66 10.72 40.31 10.90L40.31 10.90L40.31 10.90Q39.97 11.09 39.76 11.37L39.76 11.37L39.76 11.37Q39.55 11.66 39.41 12.03L39.41 12.03L39.41 12.03Q39.27 12.40 39.22 12.74L39.22 12.74L39.22 12.74Q39.17 13.08 39.17 13.42L39.17 13.42L39.17 13.42Q39.17 13.49 39.27 13.49L39.27 13.49L39.27 13.49Q39.29 13.49 39.31 13.49L39.31 13.49L39.31 13.49Q39.34 13.48 39.35 13.48ZM43.37 15.62L43.59 15.67L43.74 15.94L43.74 15.94Q42.85 16.56 42.08 16.94L42.08 16.94L42.08 16.94Q41.30 17.32 40.53 17.32L40.53 17.32L40.53 17.32Q39.12 17.32 38.35 16.60L38.35 16.60L38.35 16.60Q37.50 15.81 37.50 14.23L37.50 14.23L37.50 14.23Q37.50 13.45 37.74 12.73L37.74 12.73L37.74 12.73Q37.99 12.00 38.46 11.43L38.46 11.43L38.46 11.43Q38.92 10.85 39.69 10.50L39.69 10.50L39.69 10.50Q40.46 10.16 41.41 10.16L41.41 10.16L41.41 10.16Q41.94 10.16 42.39 10.26L42.39 10.26L42.39 10.26Q42.85 10.37 43.24 10.60L43.24 10.60L43.24 10.60Q43.63 10.83 43.86 11.24L43.86 11.24L43.86 11.24Q44.08 11.65 44.08 12.20L44.08 12.20L44.08 12.20Q44.08 12.60 43.68 12.72L43.68 12.72L43.68 12.72Q43.64 12.72 39.17 14.11L39.17 14.11L39.17 14.11Q39.17 14.69 39.40 15.19L39.40 15.19L39.40 15.19Q39.63 15.70 40.11 16.03L40.11 16.03L40.11 16.03Q40.60 16.37 41.25 16.37L41.25 16.37L41.25 16.37Q42.14 16.37 43.37 15.62L43.37 15.62Z"></path></g><!----><g data-v-423bf9ae="" id="3ff44016-1567-4ef3-889b-2a8f4ef68bb2" transform="matrix(1.6667901825305427,0,0,1.6667901825305427,-30.690845023706572,-26.958031141682696)" stroke="none" fill="black"><path d="M68.617 46.749a10.809 10.809 0 0 0-5.683-6.092 10.799 10.799 0 0 0-4.506-.979c-1.95 0-3.812.546-5.438 1.486l-9.532-11.926c.198-.314.38-.64.538-.983 1.908-4.194.05-9.16-4.141-11.068a8.284 8.284 0 0 0-3.458-.753 8.384 8.384 0 0 0-7.613 4.894c-1.909 4.193-.05 9.158 4.143 11.071 1.097.5 2.262.753 3.458.753a8.351 8.351 0 0 0 4.815-1.551l9.256 11.579a10.759 10.759 0 0 0-1.933 2.866 10.787 10.787 0 0 0-.754 6.672l-13.812 5.029a8.272 8.272 0 0 0-3.679-3.28 8.276 8.276 0 0 0-3.46-.754 8.378 8.378 0 0 0-7.608 4.893 8.294 8.294 0 0 0-.223 6.392 8.296 8.296 0 0 0 4.363 4.676c1.098.5 2.263.756 3.464.756a8.375 8.375 0 0 0 7.604-4.895 8.302 8.302 0 0 0 .651-4.743l13.81-5.029a10.786 10.786 0 0 0 5.035 4.703 10.82 10.82 0 0 0 4.511.98c4.256 0 8.143-2.503 9.903-6.374a10.806 10.806 0 0 0 .289-8.323zm-37.151 17.44a5.129 5.129 0 0 1-4.656 2.996 5.11 5.11 0 0 1-2.12-.462 5.089 5.089 0 0 1-2.671-2.863 5.074 5.074 0 0 1 .136-3.913 5.134 5.134 0 0 1 4.659-2.998c.73 0 1.443.158 2.115.465a5.071 5.071 0 0 1 2.671 2.862 5.079 5.079 0 0 1-.134 3.913z"></path></g><!----></svg>